ffmpeg started on 2026-01-13 at 10:44:59
Report written to "D:\Convert\FFMetrics\reports\ssim_report-6.txt"
Log level: 32
Command line:
ffmpeg -hide_banner -nostdin -r 24000/1001 -i "F:\\Convert\\files\\[DC] Make Heroine ga Oosugiru - 07_Telegram_HEVC(121).mkv" -r 24000/1001 -i "F:\\Convert\\files\\[DC] Make Heroine ga Oosugiru - 07_Telegram.mp4" -lavfi "[0:v]settb=AVTB,setpts=PTS-STARTPTS,format=pix_fmts=yuv420p10le,fps=24000/1001,scale=1920:1080:flags=lanczos:param0=3:out_range=limited:out_color_matrix=bt709:out_chroma_loc=left,setsar=1/1,setdar=(1920/1080)*(1/1),colorspace=format=yuv420p10:range=tv:primaries=bt709:trc=bt709:space=bt709:fast=0[main];[1:v]settb=AVTB,setpts=PTS-STARTPTS,format=pix_fmts=yuv420p,fps=24000/1001,scale=1920:1080:flags=lanczos:param0=3:out_range=limited:out_color_matrix=bt709:out_chroma_loc=left,setsar=1.000,setdar=1.778,colorspace=format=yuv420p:range=tv:primaries=bt709:trc=bt709:space=bt709:fast=0[ref];[main][ref]ssim=eof_action=endall:stats_file='D\\:/Convert/FFMetrics/logs/ssim_logfile-6.txt'" -f null -
Input #0, matroska,webm, from 'F:\Convert\files\[DC] Make Heroine ga Oosugiru - 07_Telegram_HEVC(121).mkv':
  Metadata:
    COMPATIBLE_BRANDS: isomiso2avc1mp41
    MAJOR_BRAND     : isom
    MINOR_VERSION   : 512
    ENCODER         : Lavf61.7.100
  Duration: 00:24:06.79, start: -0.021000, bitrate: 1033 kb/s
  Stream #0:0: Video: hevc (Main 10), yuv420p10le(tv, bt709, progressive), 1920x1080 [SAR 1:1 DAR 16:9], 23.98 fps, 23.98 tbr, 1k tbn (default)
      Metadata:
        HANDLER_NAME    : VideoHandler
        VENDOR_ID       : [0][0][0][0]
        ENCODER         : Lavc61.19.100 libx265
        BPS             : 836535
        DURATION        : 00:24:06.569708333
        NUMBER_OF_FRAMES: 34683
        NUMBER_OF_BYTES : 151263304
        _STATISTICS_WRITING_APP: mkvpropedit v94.0 ('Initiate') 64-bit
        _STATISTICS_WRITING_DATE_UTC: 2026-01-12 16:00:11
        _STATISTICS_TAGS: BPS DURATION NUMBER_OF_FRAMES NUMBER_OF_BYTES
  Stream #0:1: Audio: aac (LC), 48000 Hz, stereo, fltp (default)
      Metadata:
        HANDLER_NAME    : SoundHandler
        VENDOR_ID       : [0][0][0][0]
        ENCODER         : Lavc61.19.100 aac
        BPS             : 193194
        DURATION        : 00:24:06.784000000
        NUMBER_OF_FRAMES: 67819
        NUMBER_OF_BYTES : 34938755
        _STATISTICS_WRITING_APP: mkvpropedit v94.0 ('Initiate') 64-bit
        _STATISTICS_WRITING_DATE_UTC: 2026-01-12 16:00:11
        _STATISTICS_TAGS: BPS DURATION NUMBER_OF_FRAMES NUMBER_OF_BYTES
Input #1, mov,mp4,m4a,3gp,3g2,mj2, from 'F:\Convert\files\[DC] Make Heroine ga Oosugiru - 07_Telegram.mp4':
  Metadata:
    major_brand     : isom
    minor_version   : 512
    compatible_brands: isomiso2avc1mp41
    encoder         : Lavf60.16.100
  Duration: 00:24:06.74, start: 0.000000, bitrate: 3764 kb/s
  Stream #1:0[0x1](und): Video: h264 (High) (avc1 / 0x31637661), yuv420p(tv, bt709, progressive), 1920x1080 [SAR 1:1 DAR 16:9], 3616 kb/s, 23.98 fps, 23.98 tbr, 24k tbn (default)
      Metadata:
        handler_name    : VideoHandler
        vendor_id       : [0][0][0][0]
        encoder         : Lavc60.31.102 h264_qsv
  Stream #1:1[0x2](und): Audio: aac (HE-AACv2) (mp4a / 0x6134706D), 48000 Hz, stereo, fltp, 144 kb/s (default)
      Metadata:
        handler_name    : SoundHandler
        vendor_id       : [0][0][0][0]
Stream mapping:
  Stream #0:0 (hevc) -> settb:default
  Stream #1:0 (h264) -> settb:default
  ssim:default -> Stream #0:0 (wrapped_avframe)
  Stream #0:1 -> #0:1 (aac (native) -> pcm_s16le (native))
Output #0, null, to 'pipe:':
  Metadata:
    COMPATIBLE_BRANDS: isomiso2avc1mp41
    MAJOR_BRAND     : isom
    MINOR_VERSION   : 512
    encoder         : Lavf61.7.100
  Stream #0:0: Video: wrapped_avframe, yuv420p10le(tv, bt709, progressive), 1920x1080 [SAR 1:1 DAR 16:9], q=2-31, 200 kb/s, 23.98 fps, 23.98 tbn
      Metadata:
        encoder         : Lavc61.19.100 wrapped_avframe
  Stream #0:1: Audio: pcm_s16le, 48000 Hz, stereo, s16, 1536 kb/s (default)
      Metadata:
        HANDLER_NAME    : SoundHandler
        VENDOR_ID       : [0][0][0][0]
        _STATISTICS_TAGS: BPS DURATION NUMBER_OF_FRAMES NUMBER_OF_BYTES
        BPS             : 193194
        DURATION        : 00:24:06.784000000
        NUMBER_OF_FRAMES: 67819
        NUMBER_OF_BYTES : 34938755
        _STATISTICS_WRITING_APP: mkvpropedit v94.0 ('Initiate') 64-bit
        _STATISTICS_WRITING_DATE_UTC: 2026-01-12 16:00:11
        encoder         : Lavc61.19.100 pcm_s16le
frame=  115 fps=0.0 q=-0.0 size=N/A time=00:00:04.79 bitrate=N/A speed=9.23x    frame=  272 fps=262 q=-0.0 size=N/A time=00:00:11.34 bitrate=N/A speed=10.9x    frame=  438 fps=280 q=-0.0 size=N/A time=00:00:18.26 bitrate=N/A speed=11.7x    frame=  562 fps=270 q=-0.0 size=N/A time=00:00:23.44 bitrate=N/A speed=11.3x    frame=  736 fps=284 q=-0.0 size=N/A time=00:00:30.69 bitrate=N/A speed=11.9x    frame=  902 fps=291 q=-0.0 size=N/A time=00:00:37.62 bitrate=N/A speed=12.1x    frame= 1048 fps=289 q=-0.0 size=N/A time=00:00:43.71 bitrate=N/A speed=  12x    frame= 1207 fps=292 q=-0.0 size=N/A time=00:00:50.34 bitrate=N/A speed=12.2x    frame= 1366 fps=294 q=-0.0 size=N/A time=00:00:56.97 bitrate=N/A speed=12.3x    frame= 1520 fps=294 q=-0.0 size=N/A time=00:01:03.39 bitrate=N/A speed=12.2x    frame= 1648 fps=290 q=-0.0 size=N/A time=00:01:08.73 bitrate=N/A speed=12.1x    frame= 1809 fps=292 q=-0.0 size=N/A time=00:01:15.45 bitrate=N/A speed=12.2x    frame= 1972 fps=294 q=-0.0 size=N/A time=00:01:22.24 bitrate=N/A speed=12.3x    frame= 2088 fps=289 q=-0.0 size=N/A time=00:01:27.08 bitrate=N/A speed=12.1x    frame= 2227 fps=287 q=-0.0 size=N/A time=00:01:32.88 bitrate=N/A speed=  12x    frame= 2374 fps=287 q=-0.0 size=N/A time=00:01:39.01 bitrate=N/A speed=  12x    frame= 2495 fps=284 q=-0.0 size=N/A time=00:01:44.06 bitrate=N/A speed=11.9x    frame= 2620 fps=282 q=-0.0 size=N/A time=00:01:49.27 bitrate=N/A speed=11.7x    frame= 2801 fps=285 q=-0.0 size=N/A time=00:01:56.82 bitrate=N/A speed=11.9x    frame= 2974 fps=288 q=-0.0 size=N/A time=00:02:04.04 bitrate=N/A speed=  12x    frame= 3156 fps=291 q=-0.0 size=N/A time=00:02:11.63 bitrate=N/A speed=12.1x    frame= 3338 fps=293 q=-0.0 size=N/A time=00:02:19.22 bitrate=N/A speed=12.2x    frame= 3506 fps=295 q=-0.0 size=N/A time=00:02:26.22 bitrate=N/A speed=12.3x    frame= 3674 fps=296 q=-0.0 size=N/A time=00:02:33.23 bitrate=N/A speed=12.4x    frame= 3843 fps=298 q=-0.0 size=N/A time=00:02:40.28 bitrate=N/A speed=12.4x    frame= 4020 fps=299 q=-0.0 size=N/A time=00:02:47.66 bitrate=N/A speed=12.5x    frame= 4196 fps=301 q=-0.0 size=N/A time=00:02:55.00 bitrate=N/A speed=12.5x    frame= 4381 fps=303 q=-0.0 size=N/A time=00:03:02.72 bitrate=N/A speed=12.6x    frame= 4573 fps=305 q=-0.0 size=N/A time=00:03:10.73 bitrate=N/A speed=12.7x    frame= 4750 fps=307 q=-0.0 size=N/A time=00:03:18.11 bitrate=N/A speed=12.8x    frame= 4904 fps=306 q=-0.0 size=N/A time=00:03:24.53 bitrate=N/A speed=12.8x    frame= 5090 fps=308 q=-0.0 size=N/A time=00:03:32.29 bitrate=N/A speed=12.8x    frame= 5273 fps=309 q=-0.0 size=N/A time=00:03:39.92 bitrate=N/A speed=12.9x    frame= 5466 fps=311 q=-0.0 size=N/A time=00:03:47.97 bitrate=N/A speed=  13x    frame= 5631 fps=311 q=-0.0 size=N/A time=00:03:54.85 bitrate=N/A speed=  13x    frame= 5798 fps=312 q=-0.0 size=N/A time=00:04:01.82 bitrate=N/A speed=  13x    frame= 5970 fps=313 q=-0.0 size=N/A time=00:04:08.99 bitrate=N/A speed=  13x    frame= 6141 fps=313 q=-0.0 size=N/A time=00:04:16.13 bitrate=N/A speed=  13x    frame= 6307 fps=313 q=-0.0 size=N/A time=00:04:23.05 bitrate=N/A speed=13.1x    frame= 6467 fps=313 q=-0.0 size=N/A time=00:04:29.72 bitrate=N/A speed=13.1x    frame= 6647 fps=314 q=-0.0 size=N/A time=00:04:37.23 bitrate=N/A speed=13.1x    frame= 6815 fps=314 q=-0.0 size=N/A time=00:04:44.24 bitrate=N/A speed=13.1x    frame= 6982 fps=315 q=-0.0 size=N/A time=00:04:51.20 bitrate=N/A speed=13.1x    frame= 7150 fps=315 q=-0.0 size=N/A time=00:04:58.21 bitrate=N/A speed=13.1x    frame= 7273 fps=313 q=-0.0 size=N/A time=00:05:03.34 bitrate=N/A speed=13.1x    frame= 7443 fps=313 q=-0.0 size=N/A time=00:05:10.43 bitrate=N/A speed=13.1x    frame= 7618 fps=314 q=-0.0 size=N/A time=00:05:17.73 bitrate=N/A speed=13.1x    frame= 7793 fps=314 q=-0.0 size=N/A time=00:05:25.03 bitrate=N/A speed=13.1x    frame= 7968 fps=315 q=-0.0 size=N/A time=00:05:32.33 bitrate=N/A speed=13.1x    frame= 8146 fps=316 q=-0.0 size=N/A time=00:05:39.75 bitrate=N/A speed=13.2x    frame= 8320 fps=316 q=-0.0 size=N/A time=00:05:47.01 bitrate=N/A speed=13.2x    frame= 8494 fps=316 q=-0.0 size=N/A time=00:05:54.27 bitrate=N/A speed=13.2x    frame= 8674 fps=317 q=-0.0 size=N/A time=00:06:01.77 bitrate=N/A speed=13.2x    frame= 8846 fps=317 q=-0.0 size=N/A time=00:06:08.95 bitrate=N/A speed=13.2x    frame= 9033 fps=318 q=-0.0 size=N/A time=00:06:16.75 bitrate=N/A speed=13.3x    frame= 9213 fps=319 q=-0.0 size=N/A time=00:06:24.25 bitrate=N/A speed=13.3x    frame= 9387 fps=319 q=-0.0 size=N/A time=00:06:31.51 bitrate=N/A speed=13.3x    frame= 9518 fps=318 q=-0.0 size=N/A time=00:06:36.97 bitrate=N/A speed=13.3x    frame= 9674 fps=318 q=-0.0 size=N/A time=00:06:43.48 bitrate=N/A speed=13.2x    frame= 9839 fps=318 q=-0.0 size=N/A time=00:06:50.36 bitrate=N/A speed=13.3x    frame=10008 fps=318 q=-0.0 size=N/A time=00:06:57.41 bitrate=N/A speed=13.3x    frame=10181 fps=318 q=-0.0 size=N/A time=00:07:04.63 bitrate=N/A speed=13.3x    frame=10359 fps=318 q=-0.0 size=N/A time=00:07:12.05 bitrate=N/A speed=13.3x    frame=10530 fps=319 q=-0.0 size=N/A time=00:07:19.18 bitrate=N/A speed=13.3x    frame=10716 fps=319 q=-0.0 size=N/A time=00:07:26.94 bitrate=N/A speed=13.3x    frame=10900 fps=320 q=-0.0 size=N/A time=00:07:34.62 bitrate=N/A speed=13.3x    frame=11066 fps=320 q=-0.0 size=N/A time=00:07:41.54 bitrate=N/A speed=13.3x    frame=11218 fps=319 q=-0.0 size=N/A time=00:07:47.88 bitrate=N/A speed=13.3x    frame=11408 fps=320 q=-0.0 size=N/A time=00:07:55.80 bitrate=N/A speed=13.3x    frame=11585 fps=320 q=-0.0 size=N/A time=00:08:03.19 bitrate=N/A speed=13.4x    frame=11777 fps=321 q=-0.0 size=N/A time=00:08:11.19 bitrate=N/A speed=13.4x    frame=11924 fps=321 q=-0.0 size=N/A time=00:08:17.33 bitrate=N/A speed=13.4x    frame=12099 fps=321 q=-0.0 size=N/A time=00:08:24.62 bitrate=N/A speed=13.4x    frame=12258 fps=321 q=-0.0 size=N/A time=00:08:31.26 bitrate=N/A speed=13.4x    frame=12408 fps=320 q=-0.0 size=N/A time=00:08:37.51 bitrate=N/A speed=13.4x    frame=12585 fps=321 q=-0.0 size=N/A time=00:08:44.89 bitrate=N/A speed=13.4x    frame=12759 fps=321 q=-0.0 size=N/A time=00:08:52.15 bitrate=N/A speed=13.4x    frame=12933 fps=321 q=-0.0 size=N/A time=00:08:59.41 bitrate=N/A speed=13.4x    frame=13081 fps=321 q=-0.0 size=N/A time=00:09:05.58 bitrate=N/A speed=13.4x    frame=13188 fps=319 q=-0.0 size=N/A time=00:09:10.04 bitrate=N/A speed=13.3x    frame=13313 fps=318 q=-0.0 size=N/A time=00:09:15.26 bitrate=N/A speed=13.3x    frame=13487 fps=319 q=-0.0 size=N/A time=00:09:22.52 bitrate=N/A speed=13.3x    frame=13675 fps=319 q=-0.0 size=N/A time=00:09:30.36 bitrate=N/A speed=13.3x    frame=13861 fps=320 q=-0.0 size=N/A time=00:09:38.11 bitrate=N/A speed=13.3x    frame=14044 fps=320 q=-0.0 size=N/A time=00:09:45.75 bitrate=N/A speed=13.3x    frame=14199 fps=320 q=-0.0 size=N/A time=00:09:52.21 bitrate=N/A speed=13.3x    frame=14365 fps=320 q=-0.0 size=N/A time=00:09:59.14 bitrate=N/A speed=13.3x    frame=14540 fps=320 q=-0.0 size=N/A time=00:10:06.43 bitrate=N/A speed=13.3x    frame=14723 fps=320 q=-0.0 size=N/A time=00:10:14.07 bitrate=N/A speed=13.4x    frame=14905 fps=321 q=-0.0 size=N/A time=00:10:21.66 bitrate=N/A speed=13.4x    frame=15070 fps=321 q=-0.0 size=N/A time=00:10:28.54 bitrate=N/A speed=13.4x    frame=15207 fps=320 q=-0.0 size=N/A time=00:10:34.25 bitrate=N/A speed=13.4x    frame=15320 fps=319 q=-0.0 size=N/A time=00:10:39.01 bitrate=N/A speed=13.3x    frame=15478 fps=319 q=-0.0 size=N/A time=00:10:45.56 bitrate=N/A speed=13.3x    frame=15643 fps=319 q=-0.0 size=N/A time=00:10:52.44 bitrate=N/A speed=13.3x    frame=15822 fps=319 q=-0.0 size=N/A time=00:10:59.90 bitrate=N/A speed=13.3x    frame=15999 fps=320 q=-0.0 size=N/A time=00:11:07.29 bitrate=N/A speed=13.3x    frame=16187 fps=320 q=-0.0 size=N/A time=00:11:15.13 bitrate=N/A speed=13.3x    frame=16363 fps=320 q=-0.0 size=N/A time=00:11:22.47 bitrate=N/A speed=13.4x    frame=16540 fps=320 q=-0.0 size=N/A time=00:11:29.85 bitrate=N/A speed=13.4x    frame=16721 fps=321 q=-0.0 size=N/A time=00:11:37.40 bitrate=N/A speed=13.4x    frame=16912 fps=321 q=-0.0 size=N/A time=00:11:45.37 bitrate=N/A speed=13.4x    frame=17096 fps=322 q=-0.0 size=N/A time=00:11:53.04 bitrate=N/A speed=13.4x    frame=17273 fps=322 q=-0.0 size=N/A time=00:12:00.42 bitrate=N/A speed=13.4x    frame=17454 fps=322 q=-0.0 size=N/A time=00:12:07.97 bitrate=N/A speed=13.4x    frame=17635 fps=322 q=-0.0 size=N/A time=00:12:15.52 bitrate=N/A speed=13.4x    frame=17761 fps=322 q=-0.0 size=N/A time=00:12:20.78 bitrate=N/A speed=13.4x    frame=17935 fps=322 q=-0.0 size=N/A time=00:12:28.03 bitrate=N/A speed=13.4x    frame=18134 fps=322 q=-0.0 size=N/A time=00:12:36.33 bitrate=N/A speed=13.4x    frame=18306 fps=322 q=-0.0 size=N/A time=00:12:43.51 bitrate=N/A speed=13.4x    frame=18489 fps=323 q=-0.0 size=N/A time=00:12:51.14 bitrate=N/A speed=13.5x    frame=18671 fps=323 q=-0.0 size=N/A time=00:12:58.73 bitrate=N/A speed=13.5x    frame=18859 fps=323 q=-0.0 size=N/A time=00:13:06.57 bitrate=N/A speed=13.5x    frame=19045 fps=324 q=-0.0 size=N/A time=00:13:14.33 bitrate=N/A speed=13.5x    frame=19235 fps=324 q=-0.0 size=N/A time=00:13:22.25 bitrate=N/A speed=13.5x    frame=19418 fps=324 q=-0.0 size=N/A time=00:13:29.89 bitrate=N/A speed=13.5x    frame=19614 fps=325 q=-0.0 size=N/A time=00:13:38.06 bitrate=N/A speed=13.5x    frame=19800 fps=325 q=-0.0 size=N/A time=00:13:45.82 bitrate=N/A speed=13.6x    frame=19988 fps=325 q=-0.0 size=N/A time=00:13:53.66 bitrate=N/A speed=13.6x    frame=20131 fps=325 q=-0.0 size=N/A time=00:13:59.63 bitrate=N/A speed=13.5x    frame=20306 fps=325 q=-0.0 size=N/A time=00:14:06.92 bitrate=N/A speed=13.6x    frame=20486 fps=325 q=-0.0 size=N/A time=00:14:14.43 bitrate=N/A speed=13.6x    frame=20669 fps=325 q=-0.0 size=N/A time=00:14:22.06 bitrate=N/A speed=13.6x    frame=20860 fps=326 q=-0.0 size=N/A time=00:14:30.03 bitrate=N/A speed=13.6x    frame=21048 fps=326 q=-0.0 size=N/A time=00:14:37.87 bitrate=N/A speed=13.6x    frame=21228 fps=326 q=-0.0 size=N/A time=00:14:45.38 bitrate=N/A speed=13.6x    frame=21410 fps=326 q=-0.0 size=N/A time=00:14:52.97 bitrate=N/A speed=13.6x    frame=21588 fps=327 q=-0.0 size=N/A time=00:15:00.39 bitrate=N/A speed=13.6x    frame=21766 fps=327 q=-0.0 size=N/A time=00:15:07.82 bitrate=N/A speed=13.6x    frame=21951 fps=327 q=-0.0 size=N/A time=00:15:15.53 bitrate=N/A speed=13.6x    frame=22123 fps=327 q=-0.0 size=N/A time=00:15:22.71 bitrate=N/A speed=13.6x    frame=22279 fps=327 q=-0.0 size=N/A time=00:15:29.21 bitrate=N/A speed=13.6x    frame=22445 fps=327 q=-0.0 size=N/A time=00:15:36.14 bitrate=N/A speed=13.6x    frame=22558 fps=326 q=-0.0 size=N/A time=00:15:40.85 bitrate=N/A speed=13.6x    frame=22713 fps=326 q=-0.0 size=N/A time=00:15:47.32 bitrate=N/A speed=13.6x    frame=22884 fps=326 q=-0.0 size=N/A time=00:15:54.45 bitrate=N/A speed=13.6x    frame=23052 fps=326 q=-0.0 size=N/A time=00:16:01.46 bitrate=N/A speed=13.6x    frame=23217 fps=326 q=-0.0 size=N/A time=00:16:08.34 bitrate=N/A speed=13.6x    frame=23372 fps=326 q=-0.0 size=N/A time=00:16:14.80 bitrate=N/A speed=13.6x    frame=23552 fps=326 q=-0.0 size=N/A time=00:16:22.31 bitrate=N/A speed=13.6x    frame=23731 fps=326 q=-0.0 size=N/A time=00:16:29.78 bitrate=N/A speed=13.6x    frame=23913 fps=326 q=-0.0 size=N/A time=00:16:37.37 bitrate=N/A speed=13.6x    frame=24096 fps=326 q=-0.0 size=N/A time=00:16:45.00 bitrate=N/A speed=13.6x    frame=24269 fps=326 q=-0.0 size=N/A time=00:16:52.21 bitrate=N/A speed=13.6x    frame=24448 fps=327 q=-0.0 size=N/A time=00:16:59.68 bitrate=N/A speed=13.6x    frame=24633 fps=327 q=-0.0 size=N/A time=00:17:07.40 bitrate=N/A speed=13.6x    frame=24791 fps=327 q=-0.0 size=N/A time=00:17:13.99 bitrate=N/A speed=13.6x    frame=24944 fps=326 q=-0.0 size=N/A time=00:17:20.37 bitrate=N/A speed=13.6x    frame=25108 fps=326 q=-0.0 size=N/A time=00:17:27.21 bitrate=N/A speed=13.6x    frame=25262 fps=326 q=-0.0 size=N/A time=00:17:33.63 bitrate=N/A speed=13.6x    frame=25441 fps=326 q=-0.0 size=N/A time=00:17:41.10 bitrate=N/A speed=13.6x    frame=25615 fps=326 q=-0.0 size=N/A time=00:17:48.35 bitrate=N/A speed=13.6x    frame=25800 fps=327 q=-0.0 size=N/A time=00:17:56.07 bitrate=N/A speed=13.6x    frame=25980 fps=327 q=-0.0 size=N/A time=00:18:03.58 bitrate=N/A speed=13.6x    frame=26142 fps=327 q=-0.0 size=N/A time=00:18:10.33 bitrate=N/A speed=13.6x    frame=26319 fps=327 q=-0.0 size=N/A time=00:18:17.72 bitrate=N/A speed=13.6x    frame=26502 fps=327 q=-0.0 size=N/A time=00:18:25.35 bitrate=N/A speed=13.6x    frame=26687 fps=327 q=-0.0 size=N/A time=00:18:33.07 bitrate=N/A speed=13.6x    frame=26865 fps=327 q=-0.0 size=N/A time=00:18:40.49 bitrate=N/A speed=13.6x    frame=27035 fps=327 q=-0.0 size=N/A time=00:18:47.58 bitrate=N/A speed=13.6x    frame=27145 fps=327 q=-0.0 size=N/A time=00:18:52.17 bitrate=N/A speed=13.6x    frame=27309 fps=327 q=-0.0 size=N/A time=00:18:59.01 bitrate=N/A speed=13.6x    frame=27467 fps=326 q=-0.0 size=N/A time=00:19:05.60 bitrate=N/A speed=13.6x    frame=27639 fps=326 q=-0.0 size=N/A time=00:19:12.77 bitrate=N/A speed=13.6x    frame=27817 fps=327 q=-0.0 size=N/A time=00:19:20.20 bitrate=N/A speed=13.6x    frame=28006 fps=327 q=-0.0 size=N/A time=00:19:28.08 bitrate=N/A speed=13.6x    frame=28185 fps=327 q=-0.0 size=N/A time=00:19:35.54 bitrate=N/A speed=13.6x    frame=28345 fps=327 q=-0.0 size=N/A time=00:19:42.22 bitrate=N/A speed=13.6x    frame=28516 fps=327 q=-0.0 size=N/A time=00:19:49.35 bitrate=N/A speed=13.6x    frame=28671 fps=327 q=-0.0 size=N/A time=00:19:55.81 bitrate=N/A speed=13.6x    frame=28833 fps=327 q=-0.0 size=N/A time=00:20:02.57 bitrate=N/A speed=13.6x    frame=28992 fps=326 q=-0.0 size=N/A time=00:20:09.20 bitrate=N/A speed=13.6x    frame=29156 fps=326 q=-0.0 size=N/A time=00:20:16.04 bitrate=N/A speed=13.6x    frame=29295 fps=326 q=-0.0 size=N/A time=00:20:21.84 bitrate=N/A speed=13.6x    frame=29438 fps=326 q=-0.0 size=N/A time=00:20:27.80 bitrate=N/A speed=13.6x    frame=29603 fps=326 q=-0.0 size=N/A time=00:20:34.69 bitrate=N/A speed=13.6x    frame=29779 fps=326 q=-0.0 size=N/A time=00:20:42.03 bitrate=N/A speed=13.6x    frame=29957 fps=326 q=-0.0 size=N/A time=00:20:49.45 bitrate=N/A speed=13.6x    frame=30113 fps=326 q=-0.0 size=N/A time=00:20:55.96 bitrate=N/A speed=13.6x    frame=30294 fps=326 q=-0.0 size=N/A time=00:21:03.51 bitrate=N/A speed=13.6x    frame=30479 fps=326 q=-0.0 size=N/A time=00:21:11.22 bitrate=N/A speed=13.6x    frame=30663 fps=326 q=-0.0 size=N/A time=00:21:18.90 bitrate=N/A speed=13.6x    frame=30847 fps=326 q=-0.0 size=N/A time=00:21:26.57 bitrate=N/A speed=13.6x    frame=31029 fps=327 q=-0.0 size=N/A time=00:21:34.16 bitrate=N/A speed=13.6x    frame=31196 fps=327 q=-0.0 size=N/A time=00:21:41.13 bitrate=N/A speed=13.6x    frame=31353 fps=326 q=-0.0 size=N/A time=00:21:47.68 bitrate=N/A speed=13.6x    frame=31518 fps=326 q=-0.0 size=N/A time=00:21:54.56 bitrate=N/A speed=13.6x    frame=31641 fps=326 q=-0.0 size=N/A time=00:21:59.69 bitrate=N/A speed=13.6x    frame=31808 fps=326 q=-0.0 size=N/A time=00:22:06.65 bitrate=N/A speed=13.6x    frame=31971 fps=326 q=-0.0 size=N/A time=00:22:13.45 bitrate=N/A speed=13.6x    frame=32140 fps=326 q=-0.0 size=N/A time=00:22:20.50 bitrate=N/A speed=13.6x    frame=32302 fps=326 q=-0.0 size=N/A time=00:22:27.26 bitrate=N/A speed=13.6x    frame=32477 fps=326 q=-0.0 size=N/A time=00:22:34.56 bitrate=N/A speed=13.6x    frame=32637 fps=326 q=-0.0 size=N/A time=00:22:41.23 bitrate=N/A speed=13.6x    frame=32781 fps=326 q=-0.0 size=N/A time=00:22:47.24 bitrate=N/A speed=13.6x    frame=32876 fps=325 q=-0.0 size=N/A time=00:22:51.20 bitrate=N/A speed=13.6x    frame=33050 fps=325 q=-0.0 size=N/A time=00:22:58.46 bitrate=N/A speed=13.6x    frame=33220 fps=325 q=-0.0 size=N/A time=00:23:05.55 bitrate=N/A speed=13.6x    frame=33377 fps=325 q=-0.0 size=N/A time=00:23:12.09 bitrate=N/A speed=13.6x    frame=33509 fps=325 q=-0.0 size=N/A time=00:23:17.60 bitrate=N/A speed=13.5x    frame=33647 fps=324 q=-0.0 size=N/A time=00:23:23.36 bitrate=N/A speed=13.5x    frame=33773 fps=324 q=-0.0 size=N/A time=00:23:28.61 bitrate=N/A speed=13.5x    frame=33903 fps=323 q=-0.0 size=N/A time=00:23:34.07 bitrate=N/A speed=13.5x    frame=34062 fps=323 q=-0.0 size=N/A time=00:23:40.66 bitrate=N/A speed=13.5x    frame=34227 fps=323 q=-0.0 size=N/A time=00:23:47.55 bitrate=N/A speed=13.5x    frame=34362 fps=323 q=-0.0 size=N/A time=00:23:53.18 bitrate=N/A speed=13.5x    frame=34495 fps=323 q=-0.0 size=N/A time=00:23:58.72 bitrate=N/A speed=13.5x    frame=34662 fps=323 q=-0.0 size=N/A time=00:24:05.69 bitrate=N/A speed=13.5x    [Parsed_ssim_16 @ 000001e8ad442380] SSIM Y:0.994468 (22.571321) U:0.994266 (22.415256) V:0.993910 (22.153509) All:0.994341 (22.472866)
[out#0/null @ 000001e89ea98a00] video:14903KiB audio:271276KiB subtitle:0KiB other streams:0KiB global headers:0KiB muxing overhead: unknown
frame=34683 fps=323 q=-0.0 Lsize=N/A time=00:24:06.57 bitrate=N/A speed=13.5x    
